PathFileType	4	(X/Y/Z)	c:/Users/goper/Files/vsCode/490R/osim_files/C11/C11_Slow_01.trc
DataRate	CameraRate	NumFrames	NumMarkers	Units                	OrigDataRate	OrigDataStartFrame	OrigNumFrames
120.00	120.00	4	36	mm	120.0	1520	1737
                Frame#	Time	LPSIS			LASIS			LTH1			LTH2			LTH3			LTH4			LLFE			LMFE			LSH1			LSH2			LSH3			LSH4			LLMAL			LMMAL			LCAL			LMTP5			LTOE			LMTP1			RPSIS			RASIS			RTH1			RTH2			RTH3			RTH4			RLFE			RMFE			RSH1			RSH2			RSH3			RSH4			RLMAL			RMMAL			RCAL			RMTP1			RTOE			RMTP5		
		X1	Y1	Z1	X2	Y2	Z2	X3	Y3	Z3	X4	Y4	Z4	X5	Y5	Z5	X6	Y6	Z6	X7	Y7	Z7	X8	Y8	Z8	X9	Y9	Z9	X10	Y10	Z10	X11	Y11	Z11	X12	Y12	Z12	X13	Y13	Z13	X14	Y14	Z14	X15	Y15	Z15	X16	Y16	Z16	X17	Y17	Z17	X18	Y18	Z18	X19	Y19	Z19	X20	Y20	Z20	X21	Y21	Z21	X22	Y22	Z22	X23	Y23	Z23	X24	Y24	Z24	X25	Y25	Z25	X26	Y26	Z26	X27	Y27	Z27	X28	Y28	Z28	X29	Y29	Z29	X30	Y30	Z30	X31	Y31	Z31	X32	Y32	Z32	X33	Y33	Z33	X34	Y34	Z34	X35	Y35	Z35	X36	Y36	Z36

1520	12.65833	0.00000	0.00000	0.00000	-4757.72363	121.47652	412.14255	-4668.23389	407.87985	491.35184	-4681.91797	363.23795	487.53870	0.00000	0.00000	0.00000	0.00000	0.00000	0.00000	0.00000	0.00000	0.00000	-4648.97217	611.30652	497.40112	-4605.70654	1028.79614	306.09888	0.00000	0.00000	0.00000	0.00000	0.00000	0.00000	0.00000	0.00000	0.00000	-4281.32666	123.72411	273.59561	0.00000	0.00000	0.00000	-4335.77197	77.24772	329.05145	-4155.19580	96.03027	250.69012	-4099.38330	137.44211	323.96106	-4136.01562	108.03139	364.44006	-4620.06396	1038.03564	391.91385	0.00000	0.00000	0.00000	-4579.72070	635.66333	516.83862	0.00000	0.00000	0.00000	-4643.20020	651.36719	508.47321	0.00000	0.00000	0.00000	-4636.42725	515.18835	485.71494	-4731.40771	426.75003	472.66058	0.00000	0.00000	0.00000	-1196.71899	735.72449	2721.00830	0.00000	0.00000	0.00000	-1206.87329	734.93359	2771.16479	0.00000	0.00000	0.00000	0.00000	0.00000	0.00000	-4784.99268	82.00468	336.66675	-4588.98096	56.52481	418.54089	0.00000	0.00000	0.00000	-4657.57422	52.84491	502.40991
1521	12.66667	0.00000	0.00000	0.00000	-4757.71387	121.45222	412.11514	-4667.29395	407.77798	491.27786	-4681.06201	363.15009	487.44598	0.00000	0.00000	0.00000	0.00000	0.00000	0.00000	0.00000	0.00000	0.00000	-4647.09033	611.08423	497.42542	-4602.75098	1028.08105	306.07983	0.00000	0.00000	0.00000	0.00000	0.00000	0.00000	0.00000	0.00000	0.00000	-4273.30908	124.08654	272.14023	0.00000	0.00000	0.00000	-4327.15723	77.07320	327.47632	-4147.09473	97.44768	249.07907	-4091.38086	139.20894	322.50986	-4127.74609	109.49545	362.98276	-4616.94482	1037.37036	391.88510	0.00000	0.00000	0.00000	-4577.66504	635.30414	516.73462	0.00000	0.00000	0.00000	-4641.01123	651.15381	508.55618	0.00000	0.00000	0.00000	-4635.03857	514.97473	485.62360	-4730.39404	426.79001	472.50473	0.00000	0.00000	0.00000	-1196.82898	735.68921	2721.03149	0.00000	0.00000	0.00000	-1206.88464	734.93750	2771.14429	0.00000	0.00000	0.00000	0.00000	0.00000	0.00000	-4785.02148	81.93236	336.66006	-4588.92188	56.59253	418.50851	0.00000	0.00000	0.00000	-4657.71875	52.97783	502.37292
1522	12.67500	0.00000	0.00000	0.00000	-4757.72607	121.45859	412.01953	-4666.15869	407.62457	491.13309	-4680.13721	363.04129	487.27234	0.00000	0.00000	0.00000	0.00000	0.00000	0.00000	0.00000	0.00000	0.00000	-4644.84766	610.76538	497.46515	-4599.60059	1027.30652	306.04321	0.00000	0.00000	0.00000	0.00000	0.00000	0.00000	0.00000	0.00000	0.00000	-4265.54053	124.39179	270.74478	0.00000	0.00000	0.00000	-4318.96777	76.85345	325.89523	-4139.28467	98.63409	247.48149	-4083.69067	140.81133	321.18390	-4119.97168	110.85710	361.59299	-4613.68945	1036.67566	391.84259	0.00000	0.00000	0.00000	0.00000	0.00000	0.00000	0.00000	0.00000	0.00000	-4638.76270	650.94318	508.52997	0.00000	0.00000	0.00000	-4633.37549	514.64362	485.38403	-4729.19141	426.82257	472.31714	0.00000	0.00000	0.00000	-1196.79346	735.73932	2721.01831	0.00000	0.00000	0.00000	-1206.87439	734.98627	2771.17554	0.00000	0.00000	0.00000	-4682.74365	116.50835	345.85336	-4785.07324	81.87251	336.62112	-4588.77295	56.70696	418.49417	0.00000	0.00000	0.00000	-4657.84570	53.07321	502.32208
1523	12.68333	0.00000	0.00000	0.00000	-4757.67578	121.48344	411.95297	-4664.82910	407.39532	490.91479	-4679.01123	362.83875	487.10764	0.00000	0.00000	0.00000	0.00000	0.00000	0.00000	0.00000	0.00000	0.00000	-4642.56836	610.53809	497.47665	-4596.21094	1026.49573	305.99680	0.00000	0.00000	0.00000	0.00000	0.00000	0.00000	0.00000	0.00000	0.00000	-4258.22559	124.61229	269.45026	0.00000	0.00000	0.00000	-4311.14697	76.64404	324.45917	-4132.09180	99.92831	246.16258	-4076.45142	142.26662	319.91742	-4112.41992	111.73563	360.22180	-4610.27100	1035.96667	391.78418	0.00000	0.00000	0.00000	0.00000	0.00000	0.00000	0.00000	0.00000	0.00000	-4636.25684	650.60815	508.54474	0.00000	0.00000	0.00000	-4631.59082	514.31714	485.31024	-4727.83008	426.89001	472.14853	0.00000	0.00000	0.00000	-1196.73523	735.72375	2721.02100	0.00000	0.00000	0.00000	-1206.87964	734.95782	2771.17603	0.00000	0.00000	0.00000	-4682.66162	116.47949	345.78458	-4785.06592	81.84418	336.61429	-4589.08105	56.57319	418.46759	0.00000	0.00000	0.00000	-4657.77441	52.97477	502.32904
